<?xml version="1.0" standalone="no"?>
<!DOCTYPE svg PUBLIC "-//W3C//DTD SVG 20010904//EN"
 "http://www.w3.org/TR/2001/REC-SVG-20010904/DTD/svg10.dtd">
<svg version="1.0" xmlns="http://www.w3.org/2000/svg"
 width="512.000000pt" height="512.000000pt" viewBox="0 0 512.000000 512.000000"
 preserveAspectRatio="xMidYMid meet">

<g transform="translate(0.000000,512.000000) scale(0.100000,-0.100000)"
fill="#fff" class="color000 svgShape" stroke="none" transform="matrix(.1 0 0 -.1 0 512)">
<path d="M1925 5055 c-280 -62 -508 -281 -571 -550 l-17 -73 -346 -5 c-392 -5
-418 -9 -566 -82 -224 -110 -375 -312 -414 -556 -7 -42 -11 -497 -11 -1312 0
-1354 -1 -1320 55 -1460 79 -197 253 -363 452 -432 129 -45 152 -46 1263 -42
1174 3 1089 -2 1246 73 160 76 305 225 368 378 21 51 20 56 -7 56 -13 0 -58 9
-101 20 -43 12 -79 20 -81 18 -1 -2 -15 -27 -31 -57 -64 -121 -215 -232 -354
-261 -40 -8 -345 -10 -1115 -8 l-1060 3 -68 26 c-160 63 -289 206 -332 370
-22 82 -22 2558 0 2642 52 199 227 363 425 397 46 8 376 10 1105 8 1140 -4
1060 0 1186 -63 77 -40 191 -157 229 -236 16 -35 33 -79 36 -97 6 -28 10 -33
28 -28 11 4 60 14 107 23 l86 17 -13 48 c-61 232 -254 435 -486 512 -119 40
-221 46 -822 46 l-558 0 6 33 c11 58 67 156 122 216 67 72 131 115 226 149
l73 27 585 3 c649 3 675 2 799 -59 95 -47 202 -156 245 -250 49 -107 56 -161
56 -455 l0 -261 88 -12 c49 -6 96 -11 105 -11 16 0 17 26 17 303 0 349 -6 393
-74 531 -80 164 -188 272 -351 351 -153 74 -161 75 -857 74 -469 0 -627 -4
-673 -14z"/>
<path d="M3385 3715 c-269 -50 -503 -173 -695 -365 -112 -111 -175 -197 -242
-328 -96 -190 -139 -373 -139 -597 0 -163 15 -260 65 -409 66 -198 165 -355
316 -506 182 -181 391 -295 655 -356 101 -23 393 -26 500 -5 395 77 738 334
919 686 210 408 189 896 -55 1292 -73 118 -263 311 -382 388 -140 91 -291 154
-452 190 -102 23 -388 29 -490 10z m458 -225 c197 -44 375 -141 522 -285 214
-210 325 -472 325 -770 0 -302 -106 -562 -314 -771 -157 -156 -338 -254 -552
-298 -289 -59 -593 5 -839 175 -112 77 -248 225 -317 346 -228 395 -187 879
105 1241 155 193 442 349 698 382 102 12 267 4 372 -20z"/>
<path d="M3780 2525 c-206 -173 -378 -314 -381 -315 -4 0 -79 81 -169 180 -89
99 -165 180 -169 180 -5 0 -42 -31 -83 -69 l-76 -69 215 -238 c118 -132 225
-249 237 -262 l23 -23 459 382 c252 210 461 384 463 385 5 4 -130 164 -138
164 -3 -1 -175 -142 -381 -315z"/>
<path d="M650 3560 l0 -80 715 0 715 0 0 80 0 80 -715 0 -715 0 0 -80z"/>
<path d="M650 2840 l0 -80 550 0 550 0 0 80 0 80 -550 0 -550 0 0 -80z"/>
<path d="M650 2125 l0 -85 550 0 550 0 0 85 0 85 -550 0 -550 0 0 -85z"/>
<path d="M650 1405 l0 -85 715 0 715 0 0 85 0 85 -715 0 -715 0 0 -85z"/>
<path d="M4314 1224 c-148 -85 -273 -159 -277 -163 -6 -6 337 -619 418 -749 1
-1 556 315 561 321 2 2 -421 735 -428 742 -2 3 -125 -65 -274 -151z"/>
<path d="M4810 380 c-140 -82 -263 -154 -273 -160 -18 -11 -18 -12 -2 -37 25
-38 63 -70 120 -101 44 -24 61 -27 140 -27 75 0 98 4 140 25 66 32 121 90 153
159 34 72 38 183 8 249 -10 23 -22 42 -25 41 -3 0 -121 -67 -261 -149z"/>
</g>
</svg>
